<?xml version="1.0" standalone="yes"?>
<svg xmlns="http://www.w3.org/2000/svg" width="73.375cm" height="10.25cm" >
<rect x="4.5cm" y="4.5cm" width="1.875cm" height="1.875cm" fill="#ea4173" stroke-width="5" />
<circle cx="5.4375cm" cy="5.4375cm" r="0.375cm" />
<rect x="6.875cm" y="4.5cm" width="1.875cm" height="1.875cm" fill="#000000" stroke-width="5" />
<circle cx="7.8125cm" cy="5.4375cm" r="0.375cm" />
<rect x="9.25cm" y="4.5cm" width="1.875cm" height="1.875cm" fill="#000000" stroke-width="5" />
<circle cx="10.1875cm" cy="5.4375cm" r="0.375cm" />
<rect x="11.625cm" y="4.5cm" width="1.875cm" height="1.875cm" fill="#ffffff" stroke-width="5" />
<circle cx="12.5625cm" cy="5.4375cm" r="0.375cm" />
<rect x="14cm" y="4.5cm" width="1.875cm" height="1.875cm" fill="#000000" stroke-width="5" />
<circle cx="14.9375cm" cy="5.4375cm" r="0.375cm" />
<rect x="16.375cm" y="4.5cm" width="1.875cm" height="1.875cm" fill="#6832f6" stroke-width="5" />
<circle cx="17.3125cm" cy="5.4375cm" r="0.375cm" />
<rect x="18.75cm" y="4.5cm" width="1.875cm" height="1.875cm" fill="#000000" stroke-width="5" />
<circle cx="19.6875cm" cy="5.4375cm" r="0.375cm" />
<rect x="21.125cm" y="4.5cm" width="1.875cm" height="1.875cm" fill="#000000" stroke-width="5" />
<circle cx="22.0625cm" cy="5.4375cm" r="0.375cm" />
<rect x="23.5cm" y="4.5cm" width="1.875cm" height="1.875cm" fill="#000000" stroke-width="5" />
<circle cx="24.4375cm" cy="5.4375cm" r="0.375cm" />
<rect x="25.875cm" y="4.5cm" width="1.875cm" height="1.875cm" fill="#000000" stroke-width="5" />
<circle cx="26.8125cm" cy="5.4375cm" r="0.375cm" />
<rect x="28.25cm" y="4.5cm" width="1.875cm" height="1.875cm" fill="#57b1f3" stroke-width="5" />
<circle cx="29.1875cm" cy="5.4375cm" r="0.375cm" />
<rect x="30.625cm" y="4.5cm" width="1.875cm" height="1.875cm" fill="#24d79e" stroke-width="5" />
<circle cx="31.5625cm" cy="5.4375cm" r="0.375cm" />
<rect x="33cm" y="4.5cm" width="1.875cm" height="1.875cm" fill="#000000" stroke-width="5" />
<circle cx="33.9375cm" cy="5.4375cm" r="0.375cm" />
<rect x="35.375cm" y="4.5cm" width="1.875cm" height="1.875cm" fill="#000000" stroke-width="5" />
<circle cx="36.3125cm" cy="5.4375cm" r="0.375cm" />
<rect x="37.75cm" y="4.5cm" width="1.875cm" height="1.875cm" fill="#000000" stroke-width="5" />
<circle cx="38.6875cm" cy="5.4375cm" r="0.375cm" />
<rect x="40.125cm" y="4.5cm" width="1.875cm" height="1.875cm" fill="#1d9a03" stroke-width="5" />
<circle cx="41.0625cm" cy="5.4375cm" r="0.375cm" />
<rect x="42.5cm" y="4.5cm" width="1.875cm" height="1.875cm" fill="#e122f8" stroke-width="5" />
<circle cx="43.4375cm" cy="5.4375cm" r="0.375cm" />
<rect x="44.875cm" y="4.5cm" width="1.875cm" height="1.875cm" fill="#000000" stroke-width="5" />
<circle cx="45.8125cm" cy="5.4375cm" r="0.375cm" />
<rect x="47.25cm" y="4.5cm" width="1.875cm" height="1.875cm" fill="#000000" stroke-width="5" />
<circle cx="48.1875cm" cy="5.4375cm" r="0.375cm" />
<rect x="49.625cm" y="4.5cm" width="1.875cm" height="1.875cm" fill="#6188bf" stroke-width="5" />
<circle cx="50.5625cm" cy="5.4375cm" r="0.375cm" />
<rect x="52cm" y="4.5cm" width="1.875cm" height="1.875cm" fill="#000000" stroke-width="5" />
<circle cx="52.9375cm" cy="5.4375cm" r="0.375cm" />
<rect x="54.375cm" y="4.5cm" width="1.875cm" height="1.875cm" fill="#000000" stroke-width="5" />
<circle cx="55.3125cm" cy="5.4375cm" r="0.375cm" />
<rect x="56.75cm" y="4.5cm" width="1.875cm" height="1.875cm" fill="#93ced2" stroke-width="5" />
<circle cx="57.6875cm" cy="5.4375cm" r="0.375cm" />
<rect x="59.125cm" y="4.5cm" width="1.875cm" height="1.875cm" fill="#ffffff" stroke-width="5" />
<circle cx="60.0625cm" cy="5.4375cm" r="0.375cm" />
<rect x="61.5cm" y="4.5cm" width="1.875cm" height="1.875cm" fill="#ffffff" stroke-width="5" />
<circle cx="62.4375cm" cy="5.4375cm" r="0.375cm" />
<rect x="63.875cm" y="4.5cm" width="1.875cm" height="1.875cm" fill="#a75d17" stroke-width="5" />
<circle cx="64.8125cm" cy="5.4375cm" r="0.375cm" />
<rect x="66.25cm" y="4.5cm" width="1.875cm" height="1.875cm" fill="#d2630e" stroke-width="5" />
<circle cx="67.1875cm" cy="5.4375cm" r="0.375cm" />
<rect x="68.625cm" y="4.5cm" width="1.875cm" height="1.875cm" fill="#000000" stroke-width="5" />
<circle cx="69.5625cm" cy="5.4375cm" r="0.375cm" />
<rect x="71cm" y="4.5cm" width="1.875cm" height="1.875cm" fill="#334d4f" stroke-width="5" />
<circle cx="71.9375cm" cy="5.4375cm" r="0.375cm" />
<rect x="4.5cm" y="7.375cm" width="1.875cm" height="1.875cm" fill="#ea4173" stroke-width="5" />
<circle cx="5.4375cm" cy="8.3125cm" r="0.375cm" />
<rect x="6.875cm" y="7.375cm" width="1.875cm" height="1.875cm" fill="#000000" stroke-width="5" />
<circle cx="7.8125cm" cy="8.3125cm" r="0.375cm" />
<rect x="9.25cm" y="7.375cm" width="1.875cm" height="1.875cm" fill="#000000" stroke-width="5" />
<circle cx="10.1875cm" cy="8.3125cm" r="0.375cm" />
<rect x="11.625cm" y="7.375cm" width="1.875cm" height="1.875cm" fill="#000000" stroke-width="5" />
<circle cx="12.5625cm" cy="8.3125cm" r="0.375cm" />
<rect x="14cm" y="7.375cm" width="1.875cm" height="1.875cm" fill="#000000" stroke-width="5" />
<circle cx="14.9375cm" cy="8.3125cm" r="0.375cm" />
<rect x="16.375cm" y="7.375cm" width="1.875cm" height="1.875cm" fill="#6832f6" stroke-width="5" />
<circle cx="17.3125cm" cy="8.3125cm" r="0.375cm" />
<rect x="18.75cm" y="7.375cm" width="1.875cm" height="1.875cm" fill="#ffffff" stroke-width="5" />
<circle cx="19.6875cm" cy="8.3125cm" r="0.375cm" />
<rect x="21.125cm" y="7.375cm" width="1.875cm" height="1.875cm" fill="#000000" stroke-width="5" />
<circle cx="22.0625cm" cy="8.3125cm" r="0.375cm" />
<rect x="23.5cm" y="7.375cm" width="1.875cm" height="1.875cm" fill="#ffffff" stroke-width="5" />
<circle cx="24.4375cm" cy="8.3125cm" r="0.375cm" />
<rect x="25.875cm" y="7.375cm" width="1.875cm" height="1.875cm" fill="#ffffff" stroke-width="5" />
<circle cx="26.8125cm" cy="8.3125cm" r="0.375cm" />
<rect x="28.25cm" y="7.375cm" width="1.875cm" height="1.875cm" fill="#57b1f3" stroke-width="5" />
<circle cx="29.1875cm" cy="8.3125cm" r="0.375cm" />
<rect x="30.625cm" y="7.375cm" width="1.875cm" height="1.875cm" fill="#24d79e" stroke-width="5" />
<circle cx="31.5625cm" cy="8.3125cm" r="0.375cm" />
<rect x="33cm" y="7.375cm" width="1.875cm" height="1.875cm" fill="#ffffff" stroke-width="5" />
<circle cx="33.9375cm" cy="8.3125cm" r="0.375cm" />
<rect x="35.375cm" y="7.375cm" width="1.875cm" height="1.875cm" fill="#000000" stroke-width="5" />
<circle cx="36.3125cm" cy="8.3125cm" r="0.375cm" />
<rect x="37.75cm" y="7.375cm" width="1.875cm" height="1.875cm" fill="#ffffff" stroke-width="5" />
<circle cx="38.6875cm" cy="8.3125cm" r="0.375cm" />
<rect x="40.125cm" y="7.375cm" width="1.875cm" height="1.875cm" fill="#1d9a03" stroke-width="5" />
<circle cx="41.0625cm" cy="8.3125cm" r="0.375cm" />
<rect x="42.5cm" y="7.375cm" width="1.875cm" height="1.875cm" fill="#e122f8" stroke-width="5" />
<circle cx="43.4375cm" cy="8.3125cm" r="0.375cm" />
<rect x="44.875cm" y="7.375cm" width="1.875cm" height="1.875cm" fill="#000000" stroke-width="5" />
<circle cx="45.8125cm" cy="8.3125cm" r="0.375cm" />
<rect x="47.25cm" y="7.375cm" width="1.875cm" height="1.875cm" fill="#000000" stroke-width="5" />
<circle cx="48.1875cm" cy="8.3125cm" r="0.375cm" />
<rect x="49.625cm" y="7.375cm" width="1.875cm" height="1.875cm" fill="#6188bf" stroke-width="5" />
<circle cx="50.5625cm" cy="8.3125cm" r="0.375cm" />
<rect x="52cm" y="7.375cm" width="1.875cm" height="1.875cm" fill="#000000" stroke-width="5" />
<circle cx="52.9375cm" cy="8.3125cm" r="0.375cm" />
<rect x="54.375cm" y="7.375cm" width="1.875cm" height="1.875cm" fill="#ffffff" stroke-width="5" />
<circle cx="55.3125cm" cy="8.3125cm" r="0.375cm" />
<rect x="56.75cm" y="7.375cm" width="1.875cm" height="1.875cm" fill="#93ced2" stroke-width="5" />
<circle cx="57.6875cm" cy="8.3125cm" r="0.375cm" />
<rect x="59.125cm" y="7.375cm" width="1.875cm" height="1.875cm" fill="#000000" stroke-width="5" />
<circle cx="60.0625cm" cy="8.3125cm" r="0.375cm" />
<rect x="61.5cm" y="7.375cm" width="1.875cm" height="1.875cm" fill="#000000" stroke-width="5" />
<circle cx="62.4375cm" cy="8.3125cm" r="0.375cm" />
<rect x="63.875cm" y="7.375cm" width="1.875cm" height="1.875cm" fill="#a75d17" stroke-width="5" />
<circle cx="64.8125cm" cy="8.3125cm" r="0.375cm" />
<rect x="66.25cm" y="7.375cm" width="1.875cm" height="1.875cm" fill="#d2630e" stroke-width="5" />
<circle cx="67.1875cm" cy="8.3125cm" r="0.375cm" />
<rect x="68.625cm" y="7.375cm" width="1.875cm" height="1.875cm" fill="#000000" stroke-width="5" />
<circle cx="69.5625cm" cy="8.3125cm" r="0.375cm" />
<rect x="71cm" y="7.375cm" width="1.875cm" height="1.875cm" fill="#334d4f" stroke-width="5" />
<circle cx="71.9375cm" cy="8.3125cm" r="0.375cm" />
<text x="4.5cm" y="4.3125cm" font-family="Verdana" font-size="6" fill="black" >
g19603
</text>
<text x="6.875cm" y="4.3125cm" font-family="Verdana" font-size="6" fill="black" >
g19604
</text>
<text x="9.25cm" y="4.3125cm" font-family="Verdana" font-size="6" fill="black" >
g19605
</text>
<text x="14cm" y="4.3125cm" font-family="Verdana" font-size="6" fill="black" >
g19606
</text>
<text x="16.375cm" y="4.3125cm" font-family="Verdana" font-size="6" fill="black" >
g19607
</text>
<text x="18.75cm" y="4.3125cm" font-family="Verdana" font-size="6" fill="black" >
g19608
</text>
<text x="21.125cm" y="4.3125cm" font-family="Verdana" font-size="6" fill="black" >
g19609
</text>
<text x="23.5cm" y="4.3125cm" font-family="Verdana" font-size="6" fill="black" >
g19610
</text>
<text x="25.875cm" y="4.3125cm" font-family="Verdana" font-size="6" fill="black" >
g19611
</text>
<text x="28.25cm" y="4.3125cm" font-family="Verdana" font-size="6" fill="black" >
g19612
</text>
<text x="30.625cm" y="4.3125cm" font-family="Verdana" font-size="6" fill="black" >
g19613
</text>
<text x="33cm" y="4.3125cm" font-family="Verdana" font-size="6" fill="black" >
g19614
</text>
<text x="35.375cm" y="4.3125cm" font-family="Verdana" font-size="6" fill="black" >
g19615
</text>
<text x="37.75cm" y="4.3125cm" font-family="Verdana" font-size="6" fill="black" >
g19616
</text>
<text x="40.125cm" y="4.3125cm" font-family="Verdana" font-size="6" fill="black" >
g19617
</text>
<text x="42.5cm" y="4.3125cm" font-family="Verdana" font-size="6" fill="black" >
g19618
</text>
<text x="44.875cm" y="4.3125cm" font-family="Verdana" font-size="6" fill="black" >
g19619
</text>
<text x="47.25cm" y="4.3125cm" font-family="Verdana" font-size="6" fill="black" >
g19620
</text>
<text x="49.625cm" y="4.3125cm" font-family="Verdana" font-size="6" fill="black" >
g19621
</text>
<text x="52cm" y="4.3125cm" font-family="Verdana" font-size="6" fill="black" >
g19622
</text>
<text x="54.375cm" y="4.3125cm" font-family="Verdana" font-size="6" fill="black" >
g19623
</text>
<text x="56.75cm" y="4.3125cm" font-family="Verdana" font-size="6" fill="black" >
g19624
</text>
<text x="63.875cm" y="4.3125cm" font-family="Verdana" font-size="6" fill="black" >
g19625
</text>
<text x="66.25cm" y="4.3125cm" font-family="Verdana" font-size="6" fill="black" >
g19626
</text>
<text x="68.625cm" y="4.3125cm" font-family="Verdana" font-size="6" fill="black" >
g19627
</text>
<text x="71cm" y="4.3125cm" font-family="Verdana" font-size="6" fill="black" >
g19628
</text>
<text x="4.5cm" y="7.1875cm" font-family="Verdana" font-size="6" fill="black" >
GPLIN_000273400
</text>
<text x="6.875cm" y="7.1875cm" font-family="Verdana" font-size="6" fill="black" >
GPLIN_000273500
</text>
<text x="9.25cm" y="7.1875cm" font-family="Verdana" font-size="6" fill="black" >
GPLIN_000273600
</text>
<text x="11.625cm" y="7.1875cm" font-family="Verdana" font-size="6" fill="black" >
GPLIN_000273700
</text>
<text x="14cm" y="7.1875cm" font-family="Verdana" font-size="6" fill="black" >
GPLIN_000273800
</text>
<text x="16.375cm" y="7.1875cm" font-family="Verdana" font-size="6" fill="black" >
GPLIN_000273900
</text>
<text x="21.125cm" y="7.1875cm" font-family="Verdana" font-size="6" fill="black" >
GPLIN_000274000
</text>
<text x="28.25cm" y="7.1875cm" font-family="Verdana" font-size="6" fill="black" >
GPLIN_000274100
</text>
<text x="30.625cm" y="7.1875cm" font-family="Verdana" font-size="6" fill="black" >
GPLIN_000274200
</text>
<text x="35.375cm" y="7.1875cm" font-family="Verdana" font-size="6" fill="black" >
GPLIN_000274300
</text>
<text x="40.125cm" y="7.1875cm" font-family="Verdana" font-size="6" fill="black" >
GPLIN_000274400
</text>
<text x="42.5cm" y="7.1875cm" font-family="Verdana" font-size="6" fill="black" >
GPLIN_000274500
</text>
<text x="44.875cm" y="7.1875cm" font-family="Verdana" font-size="6" fill="black" >
GPLIN_000274600
</text>
<text x="47.25cm" y="7.1875cm" font-family="Verdana" font-size="6" fill="black" >
GPLIN_000274700
</text>
<text x="49.625cm" y="7.1875cm" font-family="Verdana" font-size="6" fill="black" >
GPLIN_000274800
</text>
<text x="52cm" y="7.1875cm" font-family="Verdana" font-size="6" fill="black" >
GPLIN_000274900
</text>
<text x="56.75cm" y="7.1875cm" font-family="Verdana" font-size="6" fill="black" >
GPLIN_000275000
</text>
<text x="59.125cm" y="7.1875cm" font-family="Verdana" font-size="6" fill="black" >
GPLIN_000275100
</text>
<text x="61.5cm" y="7.1875cm" font-family="Verdana" font-size="6" fill="black" >
GPLIN_000275200
</text>
<text x="63.875cm" y="7.1875cm" font-family="Verdana" font-size="6" fill="black" >
GPLIN_000275300
</text>
<text x="66.25cm" y="7.1875cm" font-family="Verdana" font-size="6" fill="black" >
GPLIN_000275400
</text>
<text x="68.625cm" y="7.1875cm" font-family="Verdana" font-size="6" fill="black" >
GPLIN_000275500
</text>
<text x="71cm" y="7.1875cm" font-family="Verdana" font-size="6" fill="black" >
GPLIN_000275600
</text>
<text x="0.5cm" y="5.4375cm" font-family="Verdana" font-size="25" fill="black" >
H.glycines 000292
</text>
<text x="0.5cm" y="8.3125cm" font-family="Verdana" font-size="25" fill="black" >
G.pallida 54
</text>
</svg>
