<?xml version="1.0" encoding="utf-8" standalone="no"?>
<!DOCTYPE svg PUBLIC "-//W3C//DTD SVG 1.1//EN"
  "http://www.w3.org/Graphics/SVG/1.1/DTD/svg11.dtd">
<!-- Created with matplotlib (http://matplotlib.org/) -->
<svg height="286pt" version="1.1" viewBox="0 0 422 286" width="422pt" xmlns="http://www.w3.org/2000/svg" xmlns:xlink="http://www.w3.org/1999/xlink">
 <defs>
  <style type="text/css">
*{stroke-linecap:butt;stroke-linejoin:round;}
  </style>
 </defs>
 <g id="figure_1">
  <g id="patch_1">
   <path d="M 0 286.37481 
L 422.765 286.37481 
L 422.765 0 
L 0 0 
z
" style="fill:#ffffff;"/>
  </g>
  <g id="axes_1">
   <g id="patch_2">
    <path d="M 48.90125 235.207725 
L 406.02125 235.207725 
L 406.02125 22.318125 
L 48.90125 22.318125 
z
" style="fill:#ffffff;"/>
   </g>
   <g id="matplotlib.axis_1">
    <g id="xtick_1">
     <g id="line2d_1">
      <path clip-path="url(#p744d1f2226)" d="M 48.90125 235.207725 
L 48.90125 22.318125 
" style="fill:none;stroke:#b0b0b0;stroke-linecap:square;stroke-width:0.8;"/>
     </g>
     <g id="line2d_2">
      <defs>
       <path d="M 0 0 
L 0 3.5 
" id="mcdcba1b665" style="stroke:#000000;stroke-width:0.8;"/>
      </defs>
      <g>
       <use style="stroke:#000000;stroke-width:0.8;" x="48.90125" xlink:href="#mcdcba1b665" y="235.207725"/>
      </g>
     </g>
     <g id="text_1">
      <!-- 0 -->
      <defs>
       <path d="M 31.78125 66.40625 
Q 24.171875 66.40625 20.328125 58.90625 
Q 16.5 51.421875 16.5 36.375 
Q 16.5 21.390625 20.328125 13.890625 
Q 24.171875 6.390625 31.78125 6.390625 
Q 39.453125 6.390625 43.28125 13.890625 
Q 47.125 21.390625 47.125 36.375 
Q 47.125 51.421875 43.28125 58.90625 
Q 39.453125 66.40625 31.78125 66.40625 
z
M 31.78125 74.21875 
Q 44.046875 74.21875 50.515625 64.515625 
Q 56.984375 54.828125 56.984375 36.375 
Q 56.984375 17.96875 50.515625 8.265625 
Q 44.046875 -1.421875 31.78125 -1.421875 
Q 19.53125 -1.421875 13.0625 8.265625 
Q 6.59375 17.96875 6.59375 36.375 
Q 6.59375 54.828125 13.0625 64.515625 
Q 19.53125 74.21875 31.78125 74.21875 
z
" id="DejaVuSans-30"/>
      </defs>
      <g transform="translate(45.72 249.806163)scale(0.1 -0.1)">
       <use xlink:href="#DejaVuSans-30"/>
      </g>
     </g>
    </g>
    <g id="xtick_2">
     <g id="line2d_3">
      <path clip-path="url(#p744d1f2226)" d="M 120.32525 235.207725 
L 120.32525 22.318125 
" style="fill:none;stroke:#b0b0b0;stroke-linecap:square;stroke-width:0.8;"/>
     </g>
     <g id="line2d_4">
      <g>
       <use style="stroke:#000000;stroke-width:0.8;" x="120.32525" xlink:href="#mcdcba1b665" y="235.207725"/>
      </g>
     </g>
     <g id="text_2">
      <!-- 20 -->
      <defs>
       <path d="M 19.1875 8.296875 
L 53.609375 8.296875 
L 53.609375 0 
L 7.328125 0 
L 7.328125 8.296875 
Q 12.9375 14.109375 22.625 23.890625 
Q 32.328125 33.6875 34.8125 36.53125 
Q 39.546875 41.84375 41.421875 45.53125 
Q 43.3125 49.21875 43.3125 52.78125 
Q 43.3125 58.59375 39.234375 62.25 
Q 35.15625 65.921875 28.609375 65.921875 
Q 23.96875 65.921875 18.8125 64.3125 
Q 13.671875 62.703125 7.8125 59.421875 
L 7.8125 69.390625 
Q 13.765625 71.78125 18.9375 73 
Q 24.125 74.21875 28.421875 74.21875 
Q 39.75 74.21875 46.484375 68.546875 
Q 53.21875 62.890625 53.21875 53.421875 
Q 53.21875 48.921875 51.53125 44.890625 
Q 49.859375 40.875 45.40625 35.40625 
Q 44.1875 33.984375 37.640625 27.21875 
Q 31.109375 20.453125 19.1875 8.296875 
z
" id="DejaVuSans-32"/>
      </defs>
      <g transform="translate(113.96275 249.806163)scale(0.1 -0.1)">
       <use xlink:href="#DejaVuSans-32"/>
       <use x="63.623047" xlink:href="#DejaVuSans-30"/>
      </g>
     </g>
    </g>
    <g id="xtick_3">
     <g id="line2d_5">
      <path clip-path="url(#p744d1f2226)" d="M 191.74925 235.207725 
L 191.74925 22.318125 
" style="fill:none;stroke:#b0b0b0;stroke-linecap:square;stroke-width:0.8;"/>
     </g>
     <g id="line2d_6">
      <g>
       <use style="stroke:#000000;stroke-width:0.8;" x="191.74925" xlink:href="#mcdcba1b665" y="235.207725"/>
      </g>
     </g>
     <g id="text_3">
      <!-- 40 -->
      <defs>
       <path d="M 37.796875 64.3125 
L 12.890625 25.390625 
L 37.796875 25.390625 
z
M 35.203125 72.90625 
L 47.609375 72.90625 
L 47.609375 25.390625 
L 58.015625 25.390625 
L 58.015625 17.1875 
L 47.609375 17.1875 
L 47.609375 0 
L 37.796875 0 
L 37.796875 17.1875 
L 4.890625 17.1875 
L 4.890625 26.703125 
z
" id="DejaVuSans-34"/>
      </defs>
      <g transform="translate(185.38675 249.806163)scale(0.1 -0.1)">
       <use xlink:href="#DejaVuSans-34"/>
       <use x="63.623047" xlink:href="#DejaVuSans-30"/>
      </g>
     </g>
    </g>
    <g id="xtick_4">
     <g id="line2d_7">
      <path clip-path="url(#p744d1f2226)" d="M 263.17325 235.207725 
L 263.17325 22.318125 
" style="fill:none;stroke:#b0b0b0;stroke-linecap:square;stroke-width:0.8;"/>
     </g>
     <g id="line2d_8">
      <g>
       <use style="stroke:#000000;stroke-width:0.8;" x="263.17325" xlink:href="#mcdcba1b665" y="235.207725"/>
      </g>
     </g>
     <g id="text_4">
      <!-- 60 -->
      <defs>
       <path d="M 33.015625 40.375 
Q 26.375 40.375 22.484375 35.828125 
Q 18.609375 31.296875 18.609375 23.390625 
Q 18.609375 15.53125 22.484375 10.953125 
Q 26.375 6.390625 33.015625 6.390625 
Q 39.65625 6.390625 43.53125 10.953125 
Q 47.40625 15.53125 47.40625 23.390625 
Q 47.40625 31.296875 43.53125 35.828125 
Q 39.65625 40.375 33.015625 40.375 
z
M 52.59375 71.296875 
L 52.59375 62.3125 
Q 48.875 64.0625 45.09375 64.984375 
Q 41.3125 65.921875 37.59375 65.921875 
Q 27.828125 65.921875 22.671875 59.328125 
Q 17.53125 52.734375 16.796875 39.40625 
Q 19.671875 43.65625 24.015625 45.921875 
Q 28.375 48.1875 33.59375 48.1875 
Q 44.578125 48.1875 50.953125 41.515625 
Q 57.328125 34.859375 57.328125 23.390625 
Q 57.328125 12.15625 50.6875 5.359375 
Q 44.046875 -1.421875 33.015625 -1.421875 
Q 20.359375 -1.421875 13.671875 8.265625 
Q 6.984375 17.96875 6.984375 36.375 
Q 6.984375 53.65625 15.1875 63.9375 
Q 23.390625 74.21875 37.203125 74.21875 
Q 40.921875 74.21875 44.703125 73.484375 
Q 48.484375 72.75 52.59375 71.296875 
z
" id="DejaVuSans-36"/>
      </defs>
      <g transform="translate(256.81075 249.806163)scale(0.1 -0.1)">
       <use xlink:href="#DejaVuSans-36"/>
       <use x="63.623047" xlink:href="#DejaVuSans-30"/>
      </g>
     </g>
    </g>
    <g id="xtick_5">
     <g id="line2d_9">
      <path clip-path="url(#p744d1f2226)" d="M 334.59725 235.207725 
L 334.59725 22.318125 
" style="fill:none;stroke:#b0b0b0;stroke-linecap:square;stroke-width:0.8;"/>
     </g>
     <g id="line2d_10">
      <g>
       <use style="stroke:#000000;stroke-width:0.8;" x="334.59725" xlink:href="#mcdcba1b665" y="235.207725"/>
      </g>
     </g>
     <g id="text_5">
      <!-- 80 -->
      <defs>
       <path d="M 31.78125 34.625 
Q 24.75 34.625 20.71875 30.859375 
Q 16.703125 27.09375 16.703125 20.515625 
Q 16.703125 13.921875 20.71875 10.15625 
Q 24.75 6.390625 31.78125 6.390625 
Q 38.8125 6.390625 42.859375 10.171875 
Q 46.921875 13.96875 46.921875 20.515625 
Q 46.921875 27.09375 42.890625 30.859375 
Q 38.875 34.625 31.78125 34.625 
z
M 21.921875 38.8125 
Q 15.578125 40.375 12.03125 44.71875 
Q 8.5 49.078125 8.5 55.328125 
Q 8.5 64.0625 14.71875 69.140625 
Q 20.953125 74.21875 31.78125 74.21875 
Q 42.671875 74.21875 48.875 69.140625 
Q 55.078125 64.0625 55.078125 55.328125 
Q 55.078125 49.078125 51.53125 44.71875 
Q 48 40.375 41.703125 38.8125 
Q 48.828125 37.15625 52.796875 32.3125 
Q 56.78125 27.484375 56.78125 20.515625 
Q 56.78125 9.90625 50.3125 4.234375 
Q 43.84375 -1.421875 31.78125 -1.421875 
Q 19.734375 -1.421875 13.25 4.234375 
Q 6.78125 9.90625 6.78125 20.515625 
Q 6.78125 27.484375 10.78125 32.3125 
Q 14.796875 37.15625 21.921875 38.8125 
z
M 18.3125 54.390625 
Q 18.3125 48.734375 21.84375 45.5625 
Q 25.390625 42.390625 31.78125 42.390625 
Q 38.140625 42.390625 41.71875 45.5625 
Q 45.3125 48.734375 45.3125 54.390625 
Q 45.3125 60.0625 41.71875 63.234375 
Q 38.140625 66.40625 31.78125 66.40625 
Q 25.390625 66.40625 21.84375 63.234375 
Q 18.3125 60.0625 18.3125 54.390625 
z
" id="DejaVuSans-38"/>
      </defs>
      <g transform="translate(328.23475 249.806163)scale(0.1 -0.1)">
       <use xlink:href="#DejaVuSans-38"/>
       <use x="63.623047" xlink:href="#DejaVuSans-30"/>
      </g>
     </g>
    </g>
    <g id="xtick_6">
     <g id="line2d_11">
      <path clip-path="url(#p744d1f2226)" d="M 406.02125 235.207725 
L 406.02125 22.318125 
" style="fill:none;stroke:#b0b0b0;stroke-linecap:square;stroke-width:0.8;"/>
     </g>
     <g id="line2d_12">
      <g>
       <use style="stroke:#000000;stroke-width:0.8;" x="406.02125" xlink:href="#mcdcba1b665" y="235.207725"/>
      </g>
     </g>
     <g id="text_6">
      <!-- 100 -->
      <defs>
       <path d="M 12.40625 8.296875 
L 28.515625 8.296875 
L 28.515625 63.921875 
L 10.984375 60.40625 
L 10.984375 69.390625 
L 28.421875 72.90625 
L 38.28125 72.90625 
L 38.28125 8.296875 
L 54.390625 8.296875 
L 54.390625 0 
L 12.40625 0 
z
" id="DejaVuSans-31"/>
      </defs>
      <g transform="translate(396.4775 249.806163)scale(0.1 -0.1)">
       <use xlink:href="#DejaVuSans-31"/>
       <use x="63.623047" xlink:href="#DejaVuSans-30"/>
       <use x="127.246094" xlink:href="#DejaVuSans-30"/>
      </g>
     </g>
    </g>
    <g id="text_7">
     <!-- x -->
     <defs>
      <path d="M 54.890625 54.6875 
L 35.109375 28.078125 
L 55.90625 0 
L 45.3125 0 
L 29.390625 21.484375 
L 13.484375 0 
L 2.875 0 
L 24.125 28.609375 
L 4.6875 54.6875 
L 15.28125 54.6875 
L 29.78125 35.203125 
L 44.28125 54.6875 
z
" id="DejaVuSans-78"/>
     </defs>
     <g transform="translate(223.91 265.003975)scale(0.12 -0.12)">
      <use xlink:href="#DejaVuSans-78"/>
     </g>
    </g>
   </g>
   <g id="matplotlib.axis_2">
    <g id="ytick_1">
     <g id="line2d_13">
      <path clip-path="url(#p744d1f2226)" d="M 48.90125 225.530925 
L 406.02125 225.530925 
" style="fill:none;stroke:#b0b0b0;stroke-linecap:square;stroke-width:0.8;"/>
     </g>
     <g id="line2d_14">
      <defs>
       <path d="M 0 0 
L -3.5 0 
" id="mab97146c6d" style="stroke:#000000;stroke-width:0.8;"/>
      </defs>
      <g>
       <use style="stroke:#000000;stroke-width:0.8;" x="48.90125" xlink:href="#mab97146c6d" y="225.530925"/>
      </g>
     </g>
     <g id="text_8">
      <!-- 0 -->
      <g transform="translate(35.53875 229.330144)scale(0.1 -0.1)">
       <use xlink:href="#DejaVuSans-30"/>
      </g>
     </g>
    </g>
    <g id="ytick_2">
     <g id="line2d_15">
      <path clip-path="url(#p744d1f2226)" d="M 48.90125 188.172802 
L 406.02125 188.172802 
" style="fill:none;stroke:#b0b0b0;stroke-linecap:square;stroke-width:0.8;"/>
     </g>
     <g id="line2d_16">
      <g>
       <use style="stroke:#000000;stroke-width:0.8;" x="48.90125" xlink:href="#mab97146c6d" y="188.172802"/>
      </g>
     </g>
     <g id="text_9">
      <!-- 25 -->
      <defs>
       <path d="M 10.796875 72.90625 
L 49.515625 72.90625 
L 49.515625 64.59375 
L 19.828125 64.59375 
L 19.828125 46.734375 
Q 21.96875 47.46875 24.109375 47.828125 
Q 26.265625 48.1875 28.421875 48.1875 
Q 40.625 48.1875 47.75 41.5 
Q 54.890625 34.8125 54.890625 23.390625 
Q 54.890625 11.625 47.5625 5.09375 
Q 40.234375 -1.421875 26.90625 -1.421875 
Q 22.3125 -1.421875 17.546875 -0.640625 
Q 12.796875 0.140625 7.71875 1.703125 
L 7.71875 11.625 
Q 12.109375 9.234375 16.796875 8.0625 
Q 21.484375 6.890625 26.703125 6.890625 
Q 35.15625 6.890625 40.078125 11.328125 
Q 45.015625 15.765625 45.015625 23.390625 
Q 45.015625 31 40.078125 35.4375 
Q 35.15625 39.890625 26.703125 39.890625 
Q 22.75 39.890625 18.8125 39.015625 
Q 14.890625 38.140625 10.796875 36.28125 
z
" id="DejaVuSans-35"/>
      </defs>
      <g transform="translate(29.17625 191.97202)scale(0.1 -0.1)">
       <use xlink:href="#DejaVuSans-32"/>
       <use x="63.623047" xlink:href="#DejaVuSans-35"/>
      </g>
     </g>
    </g>
    <g id="ytick_3">
     <g id="line2d_17">
      <path clip-path="url(#p744d1f2226)" d="M 48.90125 150.814678 
L 406.02125 150.814678 
" style="fill:none;stroke:#b0b0b0;stroke-linecap:square;stroke-width:0.8;"/>
     </g>
     <g id="line2d_18">
      <g>
       <use style="stroke:#000000;stroke-width:0.8;" x="48.90125" xlink:href="#mab97146c6d" y="150.814678"/>
      </g>
     </g>
     <g id="text_10">
      <!-- 50 -->
      <g transform="translate(29.17625 154.613897)scale(0.1 -0.1)">
       <use xlink:href="#DejaVuSans-35"/>
       <use x="63.623047" xlink:href="#DejaVuSans-30"/>
      </g>
     </g>
    </g>
    <g id="ytick_4">
     <g id="line2d_19">
      <path clip-path="url(#p744d1f2226)" d="M 48.90125 113.456555 
L 406.02125 113.456555 
" style="fill:none;stroke:#b0b0b0;stroke-linecap:square;stroke-width:0.8;"/>
     </g>
     <g id="line2d_20">
      <g>
       <use style="stroke:#000000;stroke-width:0.8;" x="48.90125" xlink:href="#mab97146c6d" y="113.456555"/>
      </g>
     </g>
     <g id="text_11">
      <!-- 75 -->
      <defs>
       <path d="M 8.203125 72.90625 
L 55.078125 72.90625 
L 55.078125 68.703125 
L 28.609375 0 
L 18.3125 0 
L 43.21875 64.59375 
L 8.203125 64.59375 
z
" id="DejaVuSans-37"/>
      </defs>
      <g transform="translate(29.17625 117.255773)scale(0.1 -0.1)">
       <use xlink:href="#DejaVuSans-37"/>
       <use x="63.623047" xlink:href="#DejaVuSans-35"/>
      </g>
     </g>
    </g>
    <g id="ytick_5">
     <g id="line2d_21">
      <path clip-path="url(#p744d1f2226)" d="M 48.90125 76.098431 
L 406.02125 76.098431 
" style="fill:none;stroke:#b0b0b0;stroke-linecap:square;stroke-width:0.8;"/>
     </g>
     <g id="line2d_22">
      <g>
       <use style="stroke:#000000;stroke-width:0.8;" x="48.90125" xlink:href="#mab97146c6d" y="76.098431"/>
      </g>
     </g>
     <g id="text_12">
      <!-- 100 -->
      <g transform="translate(22.81375 79.89765)scale(0.1 -0.1)">
       <use xlink:href="#DejaVuSans-31"/>
       <use x="63.623047" xlink:href="#DejaVuSans-30"/>
       <use x="127.246094" xlink:href="#DejaVuSans-30"/>
      </g>
     </g>
    </g>
    <g id="ytick_6">
     <g id="line2d_23">
      <path clip-path="url(#p744d1f2226)" d="M 48.90125 38.740308 
L 406.02125 38.740308 
" style="fill:none;stroke:#b0b0b0;stroke-linecap:square;stroke-width:0.8;"/>
     </g>
     <g id="line2d_24">
      <g>
       <use style="stroke:#000000;stroke-width:0.8;" x="48.90125" xlink:href="#mab97146c6d" y="38.740308"/>
      </g>
     </g>
     <g id="text_13">
      <!-- 125 -->
      <g transform="translate(22.81375 42.539527)scale(0.1 -0.1)">
       <use xlink:href="#DejaVuSans-31"/>
       <use x="63.623047" xlink:href="#DejaVuSans-32"/>
       <use x="127.246094" xlink:href="#DejaVuSans-35"/>
      </g>
     </g>
    </g>
    <g id="text_14">
     <!-- Contig length  (kbp) -->
     <defs>
      <path d="M 64.40625 67.28125 
L 64.40625 56.890625 
Q 59.421875 61.53125 53.78125 63.8125 
Q 48.140625 66.109375 41.796875 66.109375 
Q 29.296875 66.109375 22.65625 58.46875 
Q 16.015625 50.828125 16.015625 36.375 
Q 16.015625 21.96875 22.65625 14.328125 
Q 29.296875 6.6875 41.796875 6.6875 
Q 48.140625 6.6875 53.78125 8.984375 
Q 59.421875 11.28125 64.40625 15.921875 
L 64.40625 5.609375 
Q 59.234375 2.09375 53.4375 0.328125 
Q 47.65625 -1.421875 41.21875 -1.421875 
Q 24.65625 -1.421875 15.125 8.703125 
Q 5.609375 18.84375 5.609375 36.375 
Q 5.609375 53.953125 15.125 64.078125 
Q 24.65625 74.21875 41.21875 74.21875 
Q 47.75 74.21875 53.53125 72.484375 
Q 59.328125 70.75 64.40625 67.28125 
z
" id="DejaVuSans-43"/>
      <path d="M 30.609375 48.390625 
Q 23.390625 48.390625 19.1875 42.75 
Q 14.984375 37.109375 14.984375 27.296875 
Q 14.984375 17.484375 19.15625 11.84375 
Q 23.34375 6.203125 30.609375 6.203125 
Q 37.796875 6.203125 41.984375 11.859375 
Q 46.1875 17.53125 46.1875 27.296875 
Q 46.1875 37.015625 41.984375 42.703125 
Q 37.796875 48.390625 30.609375 48.390625 
z
M 30.609375 56 
Q 42.328125 56 49.015625 48.375 
Q 55.71875 40.765625 55.71875 27.296875 
Q 55.71875 13.875 49.015625 6.21875 
Q 42.328125 -1.421875 30.609375 -1.421875 
Q 18.84375 -1.421875 12.171875 6.21875 
Q 5.515625 13.875 5.515625 27.296875 
Q 5.515625 40.765625 12.171875 48.375 
Q 18.84375 56 30.609375 56 
z
" id="DejaVuSans-6f"/>
      <path d="M 54.890625 33.015625 
L 54.890625 0 
L 45.90625 0 
L 45.90625 32.71875 
Q 45.90625 40.484375 42.875 44.328125 
Q 39.84375 48.1875 33.796875 48.1875 
Q 26.515625 48.1875 22.3125 43.546875 
Q 18.109375 38.921875 18.109375 30.90625 
L 18.109375 0 
L 9.078125 0 
L 9.078125 54.6875 
L 18.109375 54.6875 
L 18.109375 46.1875 
Q 21.34375 51.125 25.703125 53.5625 
Q 30.078125 56 35.796875 56 
Q 45.21875 56 50.046875 50.171875 
Q 54.890625 44.34375 54.890625 33.015625 
z
" id="DejaVuSans-6e"/>
      <path d="M 18.3125 70.21875 
L 18.3125 54.6875 
L 36.8125 54.6875 
L 36.8125 47.703125 
L 18.3125 47.703125 
L 18.3125 18.015625 
Q 18.3125 11.328125 20.140625 9.421875 
Q 21.96875 7.515625 27.59375 7.515625 
L 36.8125 7.515625 
L 36.8125 0 
L 27.59375 0 
Q 17.1875 0 13.234375 3.875 
Q 9.28125 7.765625 9.28125 18.015625 
L 9.28125 47.703125 
L 2.6875 47.703125 
L 2.6875 54.6875 
L 9.28125 54.6875 
L 9.28125 70.21875 
z
" id="DejaVuSans-74"/>
      <path d="M 9.421875 54.6875 
L 18.40625 54.6875 
L 18.40625 0 
L 9.421875 0 
z
M 9.421875 75.984375 
L 18.40625 75.984375 
L 18.40625 64.59375 
L 9.421875 64.59375 
z
" id="DejaVuSans-69"/>
      <path d="M 45.40625 27.984375 
Q 45.40625 37.75 41.375 43.109375 
Q 37.359375 48.484375 30.078125 48.484375 
Q 22.859375 48.484375 18.828125 43.109375 
Q 14.796875 37.75 14.796875 27.984375 
Q 14.796875 18.265625 18.828125 12.890625 
Q 22.859375 7.515625 30.078125 7.515625 
Q 37.359375 7.515625 41.375 12.890625 
Q 45.40625 18.265625 45.40625 27.984375 
z
M 54.390625 6.78125 
Q 54.390625 -7.171875 48.1875 -13.984375 
Q 42 -20.796875 29.203125 -20.796875 
Q 24.46875 -20.796875 20.265625 -20.09375 
Q 16.0625 -19.390625 12.109375 -17.921875 
L 12.109375 -9.1875 
Q 16.0625 -11.328125 19.921875 -12.34375 
Q 23.78125 -13.375 27.78125 -13.375 
Q 36.625 -13.375 41.015625 -8.765625 
Q 45.40625 -4.15625 45.40625 5.171875 
L 45.40625 9.625 
Q 42.625 4.78125 38.28125 2.390625 
Q 33.9375 0 27.875 0 
Q 17.828125 0 11.671875 7.65625 
Q 5.515625 15.328125 5.515625 27.984375 
Q 5.515625 40.671875 11.671875 48.328125 
Q 17.828125 56 27.875 56 
Q 33.9375 56 38.28125 53.609375 
Q 42.625 51.21875 45.40625 46.390625 
L 45.40625 54.6875 
L 54.390625 54.6875 
z
" id="DejaVuSans-67"/>
      <path id="DejaVuSans-20"/>
      <path d="M 9.421875 75.984375 
L 18.40625 75.984375 
L 18.40625 0 
L 9.421875 0 
z
" id="DejaVuSans-6c"/>
      <path d="M 56.203125 29.59375 
L 56.203125 25.203125 
L 14.890625 25.203125 
Q 15.484375 15.921875 20.484375 11.0625 
Q 25.484375 6.203125 34.421875 6.203125 
Q 39.59375 6.203125 44.453125 7.46875 
Q 49.3125 8.734375 54.109375 11.28125 
L 54.109375 2.78125 
Q 49.265625 0.734375 44.1875 -0.34375 
Q 39.109375 -1.421875 33.890625 -1.421875 
Q 20.796875 -1.421875 13.15625 6.1875 
Q 5.515625 13.8125 5.515625 26.8125 
Q 5.515625 40.234375 12.765625 48.109375 
Q 20.015625 56 32.328125 56 
Q 43.359375 56 49.78125 48.890625 
Q 56.203125 41.796875 56.203125 29.59375 
z
M 47.21875 32.234375 
Q 47.125 39.59375 43.09375 43.984375 
Q 39.0625 48.390625 32.421875 48.390625 
Q 24.90625 48.390625 20.390625 44.140625 
Q 15.875 39.890625 15.1875 32.171875 
z
" id="DejaVuSans-65"/>
      <path d="M 54.890625 33.015625 
L 54.890625 0 
L 45.90625 0 
L 45.90625 32.71875 
Q 45.90625 40.484375 42.875 44.328125 
Q 39.84375 48.1875 33.796875 48.1875 
Q 26.515625 48.1875 22.3125 43.546875 
Q 18.109375 38.921875 18.109375 30.90625 
L 18.109375 0 
L 9.078125 0 
L 9.078125 75.984375 
L 18.109375 75.984375 
L 18.109375 46.1875 
Q 21.34375 51.125 25.703125 53.5625 
Q 30.078125 56 35.796875 56 
Q 45.21875 56 50.046875 50.171875 
Q 54.890625 44.34375 54.890625 33.015625 
z
" id="DejaVuSans-68"/>
      <path d="M 31 75.875 
Q 24.46875 64.65625 21.28125 53.65625 
Q 18.109375 42.671875 18.109375 31.390625 
Q 18.109375 20.125 21.3125 9.0625 
Q 24.515625 -2 31 -13.1875 
L 23.1875 -13.1875 
Q 15.875 -1.703125 12.234375 9.375 
Q 8.59375 20.453125 8.59375 31.390625 
Q 8.59375 42.28125 12.203125 53.3125 
Q 15.828125 64.359375 23.1875 75.875 
z
" id="DejaVuSans-28"/>
      <path d="M 9.078125 75.984375 
L 18.109375 75.984375 
L 18.109375 31.109375 
L 44.921875 54.6875 
L 56.390625 54.6875 
L 27.390625 29.109375 
L 57.625 0 
L 45.90625 0 
L 18.109375 26.703125 
L 18.109375 0 
L 9.078125 0 
z
" id="DejaVuSans-6b"/>
      <path d="M 48.6875 27.296875 
Q 48.6875 37.203125 44.609375 42.84375 
Q 40.53125 48.484375 33.40625 48.484375 
Q 26.265625 48.484375 22.1875 42.84375 
Q 18.109375 37.203125 18.109375 27.296875 
Q 18.109375 17.390625 22.1875 11.75 
Q 26.265625 6.109375 33.40625 6.109375 
Q 40.53125 6.109375 44.609375 11.75 
Q 48.6875 17.390625 48.6875 27.296875 
z
M 18.109375 46.390625 
Q 20.953125 51.265625 25.265625 53.625 
Q 29.59375 56 35.59375 56 
Q 45.5625 56 51.78125 48.09375 
Q 58.015625 40.1875 58.015625 27.296875 
Q 58.015625 14.40625 51.78125 6.484375 
Q 45.5625 -1.421875 35.59375 -1.421875 
Q 29.59375 -1.421875 25.265625 0.953125 
Q 20.953125 3.328125 18.109375 8.203125 
L 18.109375 0 
L 9.078125 0 
L 9.078125 75.984375 
L 18.109375 75.984375 
z
" id="DejaVuSans-62"/>
      <path d="M 18.109375 8.203125 
L 18.109375 -20.796875 
L 9.078125 -20.796875 
L 9.078125 54.6875 
L 18.109375 54.6875 
L 18.109375 46.390625 
Q 20.953125 51.265625 25.265625 53.625 
Q 29.59375 56 35.59375 56 
Q 45.5625 56 51.78125 48.09375 
Q 58.015625 40.1875 58.015625 27.296875 
Q 58.015625 14.40625 51.78125 6.484375 
Q 45.5625 -1.421875 35.59375 -1.421875 
Q 29.59375 -1.421875 25.265625 0.953125 
Q 20.953125 3.328125 18.109375 8.203125 
z
M 48.6875 27.296875 
Q 48.6875 37.203125 44.609375 42.84375 
Q 40.53125 48.484375 33.40625 48.484375 
Q 26.265625 48.484375 22.1875 42.84375 
Q 18.109375 37.203125 18.109375 27.296875 
Q 18.109375 17.390625 22.1875 11.75 
Q 26.265625 6.109375 33.40625 6.109375 
Q 40.53125 6.109375 44.609375 11.75 
Q 48.6875 17.390625 48.6875 27.296875 
z
" id="DejaVuSans-70"/>
      <path d="M 8.015625 75.875 
L 15.828125 75.875 
Q 23.140625 64.359375 26.78125 53.3125 
Q 30.421875 42.28125 30.421875 31.390625 
Q 30.421875 20.453125 26.78125 9.375 
Q 23.140625 -1.703125 15.828125 -13.1875 
L 8.015625 -13.1875 
Q 14.5 -2 17.703125 9.0625 
Q 20.90625 20.125 20.90625 31.390625 
Q 20.90625 42.671875 17.703125 53.65625 
Q 14.5 64.65625 8.015625 75.875 
z
" id="DejaVuSans-29"/>
     </defs>
     <g transform="translate(16.318125 188.874488)rotate(-90)scale(0.12 -0.12)">
      <use xlink:href="#DejaVuSans-43"/>
      <use x="69.824219" xlink:href="#DejaVuSans-6f"/>
      <use x="131.005859" xlink:href="#DejaVuSans-6e"/>
      <use x="194.384766" xlink:href="#DejaVuSans-74"/>
      <use x="233.59375" xlink:href="#DejaVuSans-69"/>
      <use x="261.376953" xlink:href="#DejaVuSans-67"/>
      <use x="324.853516" xlink:href="#DejaVuSans-20"/>
      <use x="356.640625" xlink:href="#DejaVuSans-6c"/>
      <use x="384.423828" xlink:href="#DejaVuSans-65"/>
      <use x="445.947266" xlink:href="#DejaVuSans-6e"/>
      <use x="509.326172" xlink:href="#DejaVuSans-67"/>
      <use x="572.802734" xlink:href="#DejaVuSans-74"/>
      <use x="612.011719" xlink:href="#DejaVuSans-68"/>
      <use x="675.390625" xlink:href="#DejaVuSans-20"/>
      <use x="707.177734" xlink:href="#DejaVuSans-20"/>
      <use x="738.964844" xlink:href="#DejaVuSans-28"/>
      <use x="777.978516" xlink:href="#DejaVuSans-6b"/>
      <use x="835.888672" xlink:href="#DejaVuSans-62"/>
      <use x="899.365234" xlink:href="#DejaVuSans-70"/>
      <use x="962.841797" xlink:href="#DejaVuSans-29"/>
     </g>
    </g>
   </g>
   <g id="line2d_25">
    <path clip-path="url(#p744d1f2226)" d="M 48.90125 31.994925 
L 58.247797 31.994925 
L 58.247797 118.614964 
L 63.411151 118.614964 
L 63.411151 158.809317 
L 66.633377 158.809317 
L 66.633377 161.521516 
L 72.811462 161.61267 
L 72.811462 167.93217 
L 75.593112 167.93217 
L 75.593112 169.005096 
L 78.322946 169.005096 
L 78.322946 170.435165 
L 80.983718 170.435165 
L 80.983718 172.28215 
L 83.555292 172.28215 
L 83.555292 178.783958 
L 85.81287 178.783958 
L 85.81287 187.872442 
L 87.631533 187.872442 
L 87.631533 191.095701 
L 89.294534 191.095701 
L 89.294534 191.892176 
L 90.919069 191.892176 
L 90.919069 192.141729 
L 92.531553 192.141729 
L 92.531553 192.864982 
L 94.109109 192.864982 
L 94.109109 193.437308 
L 95.659024 193.437308 
L 95.659024 194.11872 
L 97.176032 194.11872 
L 97.176032 194.517705 
L 98.673772 194.517705 
L 98.673772 195.698222 
L 100.1145 195.698222 
L 100.1145 197.336002 
L 101.476133 197.336002 
L 101.476133 197.600498 
L 102.824994 197.600498 
L 102.824994 198.531462 
L 104.128895 198.531462 
L 104.128895 198.981254 
L 105.411073 198.981254 
L 105.411073 199.374261 
L 106.674272 199.374261 
L 106.674272 199.546109 
L 107.929172 199.546109 
L 107.929172 200.169242 
L 110.374166 200.264879 
L 110.374166 200.441209 
L 111.585839 200.441209 
L 111.585839 201.100207 
L 115.123503 201.128599 
L 115.123503 202.733504 
L 116.224472 202.733504 
L 116.224472 202.992022 
L 118.400719 203.006965 
L 118.400719 203.213182 
L 119.478523 203.213182 
L 119.478523 203.380546 
L 120.548244 203.380546 
L 120.548244 203.498598 
L 121.612264 203.498598 
L 121.612264 203.740679 
L 122.664593 203.740679 
L 122.664593 204.236795 
L 123.692963 204.236795 
L 123.692963 204.505773 
L 124.708343 204.505773 
L 124.708343 204.691069 
L 126.720195 204.71199 
L 126.720195 204.850962 
L 127.718904 204.850962 
L 127.718904 205.402368 
L 129.66025 205.460647 
L 129.66025 205.645943 
L 130.620567 205.645943 
L 130.620567 205.780432 
L 131.574389 205.780432 
L 131.574389 206.089758 
L 132.513273 206.089758 
L 132.513273 206.316895 
L 134.368452 206.330344 
L 134.368452 206.448396 
L 135.290015 206.448396 
L 135.290015 206.642658 
L 137.112792 206.675533 
L 137.112792 206.943017 
L 138.010468 206.943017 
L 138.010468 207.119347 
L 139.7841 207.216479 
L 139.7841 207.253837 
L 143.308052 207.304644 
L 143.308052 207.616958 
L 144.173182 207.616958 
L 144.173182 207.778345 
L 147.591339 207.881453 
L 147.591339 208.065255 
L 149.277793 208.075715 
L 149.277793 208.350671 
L 151.760314 208.440331 
L 151.760314 208.683906 
L 154.194483 208.752645 
L 154.194483 208.915526 
L 154.996901 208.915526 
L 154.996901 209.145652 
L 155.788204 209.145652 
L 155.788204 209.33842 
L 157.35212 209.339914 
L 157.35212 209.812121 
L 158.866458 209.892815 
L 158.866458 210.178231 
L 160.347382 210.218577 
L 160.347382 210.33364 
L 163.275241 210.400885 
L 163.275241 210.512959 
L 165.44586 210.598136 
L 165.44586 210.932865 
L 168.257098 211.009075 
L 168.257098 211.110689 
L 170.340539 211.182417 
L 170.340539 211.303457 
L 171.714369 211.310929 
L 171.714369 211.833943 
L 175.008616 211.923602 
L 175.008616 211.975903 
L 177.620964 212.023722 
L 177.620964 212.156717 
L 178.266853 212.156717 
L 178.266853 212.394314 
L 180.165909 212.472019 
L 180.165909 212.576622 
L 183.286019 212.646855 
L 183.286019 212.700651 
L 184.52396 212.727549 
L 184.52396 212.829163 
L 186.359077 212.929283 
L 186.359077 213.09067 
L 186.959861 213.09067 
L 186.959861 213.268495 
L 189.322153 213.376086 
L 189.322153 213.404478 
L 192.237816 213.513564 
L 192.237816 213.525518 
L 195.122808 213.634604 
L 195.122808 213.648053 
L 197.408026 213.75415 
L 197.408026 213.804957 
L 200.787719 213.914043 
L 200.787719 213.973816 
L 204.679792 214.069453 
L 204.679792 214.266704 
L 205.765461 214.314522 
L 205.765461 214.454989 
L 207.898697 214.510279 
L 207.898697 214.601432 
L 209.474954 214.694081 
L 209.474954 214.731439 
L 211.033746 214.824087 
L 211.033746 214.870411 
L 215.133225 214.954093 
L 215.133225 215.012372 
L 218.173736 215.09456 
L 218.173736 215.146861 
L 219.673207 215.238015 
L 219.673207 215.357561 
L 221.630285 215.429288 
L 221.630285 215.506993 
L 223.076714 215.572744 
L 223.076714 215.628034 
L 224.978801 215.734131 
L 224.978801 215.743097 
L 226.862558 215.846205 
L 226.862558 215.895518 
L 230.105062 216.004604 
L 230.105062 216.088286 
L 231.916581 216.188405 
L 231.916581 216.257144 
L 234.143633 216.352781 
L 234.143633 216.385656 
L 235.899944 216.485776 
L 235.899944 216.499225 
L 237.63807 216.585896 
L 237.63807 216.671072 
L 240.192035 216.757743 
L 240.192035 216.802573 
L 243.548418 216.901198 
L 243.548418 216.922119 
L 245.620168 217.031205 
L 245.620168 217.038676 
L 248.066894 217.144773 
L 248.066894 217.159717 
L 250.074272 217.267308 
L 250.074272 217.273285 
L 253.243888 217.364439 
L 253.243888 217.40628 
L 255.978197 217.500423 
L 255.978197 217.519849 
L 257.516855 217.608014 
L 257.516855 217.640889 
L 260.936744 217.690202 
L 260.936744 217.757447 
L 263.553639 217.82768 
L 263.553639 217.869521 
L 266.497158 217.977112 
L 266.497158 217.981595 
L 268.306006 218.080221 
L 268.306006 218.096658 
L 272.587489 218.207238 
L 272.587489 218.210227 
L 274.345532 218.296898 
L 274.345532 218.337245 
L 277.450631 218.444836 
L 277.450631 218.461274 
L 279.145673 218.570359 
L 279.145673 218.625649 
L 280.806292 218.70186 
L 280.806292 218.770599 
L 283.082706 218.818417 
L 283.082706 218.897617 
L 285.95276 218.972333 
L 285.95276 219.017163 
L 289.07453 219.121765 
L 289.07453 219.129237 
L 290.299408 219.232345 
L 290.299408 219.266715 
L 292.993232 219.362352 
L 292.993232 219.452011 
L 296.194818 219.558108 
L 296.194818 219.570063 
L 299.907558 219.680643 
L 299.907558 219.729956 
L 301.020507 219.789729 
L 301.020507 219.859962 
L 304.811547 219.970542 
L 304.811547 219.975025 
L 308.264344 220.07365 
L 308.264344 220.102043 
L 311.126315 220.200668 
L 311.126315 220.220094 
L 314.434923 220.312742 
L 314.434923 220.333663 
L 317.671798 220.438266 
L 317.671798 220.445737 
L 319.616319 220.542868 
L 319.616319 220.562295 
L 324.12159 220.672875 
L 324.12159 220.681841 
L 326.440293 220.778972 
L 326.440293 220.795409 
L 330.284808 220.904495 
L 330.284808 220.914955 
L 332.488334 221.024041 
L 332.488334 221.052433 
L 336.123495 221.161519 
L 336.123495 221.201866 
L 339.432537 221.310951 
L 339.432537 221.321412 
L 341.647393 221.411071 
L 341.647393 221.436475 
L 343.399663 221.539583 
L 343.399663 221.550043 
L 347.006246 221.653152 
L 347.006246 221.703959 
L 349.736513 221.807067 
L 349.736513 221.820516 
L 352.216508 221.926613 
L 352.216508 221.935579 
L 355.308041 222.037193 
L 355.308041 222.064091 
L 358.113722 222.171683 
L 358.113722 222.176166 
L 359.864116 222.286746 
L 359.864116 222.294217 
L 362.625992 222.403303 
L 362.625992 222.418246 
L 364.994274 222.527332 
L 364.994274 222.534803 
L 367.415959 222.639406 
L 367.415959 222.651361 
L 370.006512 222.761941 
L 370.006512 222.76493 
L 372.365845 222.872521 
L 372.365845 222.914362 
L 375.584607 223.020459 
L 375.584607 223.030919 
L 378.180934 223.140005 
L 378.180934 223.154948 
L 381.433613 223.265528 
L 381.542873 223.271506 
L 383.9883 223.377603 
L 384.091426 223.401512 
L 386.48944 223.509103 
L 386.586504 223.522552 
L 388.570789 223.630144 
L 388.662295 223.636121 
L 389.72848 223.742218 
L 389.814358 223.757161 
L 392.709815 223.866247 
L 392.790064 223.873719 
L 394.494559 223.979816 
L 394.568891 223.993265 
L 396.273026 224.103845 
L 396.341656 224.121777 
L 398.181247 224.229368 
L 398.243888 224.23684 
L 399.924424 224.345925 
L 399.981363 224.353397 
L 401.935988 224.452022 
L 402.038247 224.474437 
L 403.721959 224.583523 
L 403.8126 224.602949 
L 404.988983 224.710541 
L 405.067789 224.716518 
L 406.02125 224.783763 
L 406.02125 225.530925 
L 406.02125 225.530925 
" style="fill:none;stroke:#e31a1c;stroke-linecap:square;stroke-width:2;"/>
   </g>
   <g id="patch_3">
    <path d="M 48.90125 235.207725 
L 48.90125 22.318125 
" style="fill:none;stroke:#000000;stroke-linecap:square;stroke-linejoin:miter;stroke-width:0.8;"/>
   </g>
   <g id="patch_4">
    <path d="M 406.02125 235.207725 
L 406.02125 22.318125 
" style="fill:none;stroke:#000000;stroke-linecap:square;stroke-linejoin:miter;stroke-width:0.8;"/>
   </g>
   <g id="patch_5">
    <path d="M 48.90125 235.207725 
L 406.02125 235.207725 
" style="fill:none;stroke:#000000;stroke-linecap:square;stroke-linejoin:miter;stroke-width:0.8;"/>
   </g>
   <g id="patch_6">
    <path d="M 48.90125 22.318125 
L 406.02125 22.318125 
" style="fill:none;stroke:#000000;stroke-linecap:square;stroke-linejoin:miter;stroke-width:0.8;"/>
   </g>
   <g id="text_15">
    <!-- Nx -->
    <defs>
     <path d="M 9.8125 72.90625 
L 23.09375 72.90625 
L 55.421875 11.921875 
L 55.421875 72.90625 
L 64.984375 72.90625 
L 64.984375 0 
L 51.703125 0 
L 19.390625 60.984375 
L 19.390625 0 
L 9.8125 0 
z
" id="DejaVuSans-4e"/>
    </defs>
    <g transform="translate(219.42125 16.318125)scale(0.12 -0.12)">
     <use xlink:href="#DejaVuSans-4e"/>
     <use x="74.804688" xlink:href="#DejaVuSans-78"/>
    </g>
   </g>
   <g id="legend_1">
    <g id="patch_7">
     <path d="M 182.995625 281.17481 
L 275.926875 281.17481 
Q 277.926875 281.17481 277.926875 279.17481 
L 277.926875 265.496685 
Q 277.926875 263.496685 275.926875 263.496685 
L 182.995625 263.496685 
Q 180.995625 263.496685 180.995625 265.496685 
L 180.995625 279.17481 
Q 180.995625 281.17481 182.995625 281.17481 
z
" style="fill:#4c4c4c;opacity:0.5;stroke:#4c4c4c;stroke-linejoin:miter;"/>
    </g>
    <g id="patch_8">
     <path d="M 180.995625 279.17481 
L 273.926875 279.17481 
Q 275.926875 279.17481 275.926875 277.17481 
L 275.926875 263.496685 
Q 275.926875 261.496685 273.926875 261.496685 
L 180.995625 261.496685 
Q 178.995625 261.496685 178.995625 263.496685 
L 178.995625 277.17481 
Q 178.995625 279.17481 180.995625 279.17481 
z
" style="fill:#ffffff;opacity:0.8;stroke:#cccccc;stroke-linejoin:miter;"/>
    </g>
    <g id="line2d_26">
     <path d="M 182.995625 269.595123 
L 202.995625 269.595123 
" style="fill:none;stroke:#e31a1c;stroke-linecap:square;stroke-width:2;"/>
    </g>
    <g id="line2d_27"/>
    <g id="text_16">
     <!-- final.contigs -->
     <defs>
      <path d="M 37.109375 75.984375 
L 37.109375 68.5 
L 28.515625 68.5 
Q 23.6875 68.5 21.796875 66.546875 
Q 19.921875 64.59375 19.921875 59.515625 
L 19.921875 54.6875 
L 34.71875 54.6875 
L 34.71875 47.703125 
L 19.921875 47.703125 
L 19.921875 0 
L 10.890625 0 
L 10.890625 47.703125 
L 2.296875 47.703125 
L 2.296875 54.6875 
L 10.890625 54.6875 
L 10.890625 58.5 
Q 10.890625 67.625 15.140625 71.796875 
Q 19.390625 75.984375 28.609375 75.984375 
z
" id="DejaVuSans-66"/>
      <path d="M 34.28125 27.484375 
Q 23.390625 27.484375 19.1875 25 
Q 14.984375 22.515625 14.984375 16.5 
Q 14.984375 11.71875 18.140625 8.90625 
Q 21.296875 6.109375 26.703125 6.109375 
Q 34.1875 6.109375 38.703125 11.40625 
Q 43.21875 16.703125 43.21875 25.484375 
L 43.21875 27.484375 
z
M 52.203125 31.203125 
L 52.203125 0 
L 43.21875 0 
L 43.21875 8.296875 
Q 40.140625 3.328125 35.546875 0.953125 
Q 30.953125 -1.421875 24.3125 -1.421875 
Q 15.921875 -1.421875 10.953125 3.296875 
Q 6 8.015625 6 15.921875 
Q 6 25.140625 12.171875 29.828125 
Q 18.359375 34.515625 30.609375 34.515625 
L 43.21875 34.515625 
L 43.21875 35.40625 
Q 43.21875 41.609375 39.140625 45 
Q 35.0625 48.390625 27.6875 48.390625 
Q 23 48.390625 18.546875 47.265625 
Q 14.109375 46.140625 10.015625 43.890625 
L 10.015625 52.203125 
Q 14.9375 54.109375 19.578125 55.046875 
Q 24.21875 56 28.609375 56 
Q 40.484375 56 46.34375 49.84375 
Q 52.203125 43.703125 52.203125 31.203125 
z
" id="DejaVuSans-61"/>
      <path d="M 10.6875 12.40625 
L 21 12.40625 
L 21 0 
L 10.6875 0 
z
" id="DejaVuSans-2e"/>
      <path d="M 48.78125 52.59375 
L 48.78125 44.1875 
Q 44.96875 46.296875 41.140625 47.34375 
Q 37.3125 48.390625 33.40625 48.390625 
Q 24.65625 48.390625 19.8125 42.84375 
Q 14.984375 37.3125 14.984375 27.296875 
Q 14.984375 17.28125 19.8125 11.734375 
Q 24.65625 6.203125 33.40625 6.203125 
Q 37.3125 6.203125 41.140625 7.25 
Q 44.96875 8.296875 48.78125 10.40625 
L 48.78125 2.09375 
Q 45.015625 0.34375 40.984375 -0.53125 
Q 36.96875 -1.421875 32.421875 -1.421875 
Q 20.0625 -1.421875 12.78125 6.34375 
Q 5.515625 14.109375 5.515625 27.296875 
Q 5.515625 40.671875 12.859375 48.328125 
Q 20.21875 56 33.015625 56 
Q 37.15625 56 41.109375 55.140625 
Q 45.0625 54.296875 48.78125 52.59375 
z
" id="DejaVuSans-63"/>
      <path d="M 44.28125 53.078125 
L 44.28125 44.578125 
Q 40.484375 46.53125 36.375 47.5 
Q 32.28125 48.484375 27.875 48.484375 
Q 21.1875 48.484375 17.84375 46.4375 
Q 14.5 44.390625 14.5 40.28125 
Q 14.5 37.15625 16.890625 35.375 
Q 19.28125 33.59375 26.515625 31.984375 
L 29.59375 31.296875 
Q 39.15625 29.25 43.1875 25.515625 
Q 47.21875 21.78125 47.21875 15.09375 
Q 47.21875 7.46875 41.1875 3.015625 
Q 35.15625 -1.421875 24.609375 -1.421875 
Q 20.21875 -1.421875 15.453125 -0.5625 
Q 10.6875 0.296875 5.421875 2 
L 5.421875 11.28125 
Q 10.40625 8.6875 15.234375 7.390625 
Q 20.0625 6.109375 24.8125 6.109375 
Q 31.15625 6.109375 34.5625 8.28125 
Q 37.984375 10.453125 37.984375 14.40625 
Q 37.984375 18.0625 35.515625 20.015625 
Q 33.0625 21.96875 24.703125 23.78125 
L 21.578125 24.515625 
Q 13.234375 26.265625 9.515625 29.90625 
Q 5.8125 33.546875 5.8125 39.890625 
Q 5.8125 47.609375 11.28125 51.796875 
Q 16.75 56 26.8125 56 
Q 31.78125 56 36.171875 55.265625 
Q 40.578125 54.546875 44.28125 53.078125 
z
" id="DejaVuSans-73"/>
     </defs>
     <g transform="translate(210.995625 273.095123)scale(0.1 -0.1)">
      <use xlink:href="#DejaVuSans-66"/>
      <use x="35.205078" xlink:href="#DejaVuSans-69"/>
      <use x="62.988281" xlink:href="#DejaVuSans-6e"/>
      <use x="126.367188" xlink:href="#DejaVuSans-61"/>
      <use x="187.646484" xlink:href="#DejaVuSans-6c"/>
      <use x="215.429688" xlink:href="#DejaVuSans-2e"/>
      <use x="247.216797" xlink:href="#DejaVuSans-63"/>
      <use x="302.197266" xlink:href="#DejaVuSans-6f"/>
      <use x="363.378906" xlink:href="#DejaVuSans-6e"/>
      <use x="426.757812" xlink:href="#DejaVuSans-74"/>
      <use x="465.966797" xlink:href="#DejaVuSans-69"/>
      <use x="493.75" xlink:href="#DejaVuSans-67"/>
      <use x="557.226562" xlink:href="#DejaVuSans-73"/>
     </g>
    </g>
   </g>
  </g>
 </g>
 <defs>
  <clipPath id="p744d1f2226">
   <rect height="212.8896" width="357.12" x="48.90125" y="22.318125"/>
  </clipPath>
 </defs>
</svg>
